<?xml version="1.0" encoding="UTF-8"?>
<svg version="1.1" viewBox="0 0 1063 430" xmlns="http://www.w3.org/2000/svg">
	<style type="text/css">.st0{font-family:'ProximaNova-Regular';}
	.st1{font-size:27.0215px;}
	.st2{letter-spacing:2;}
	.st3{font-size:53.2893px;}
	.st4{letter-spacing:3;}
	.st5{fill:#808080;}
	.st6{fill:#999999;}
	.st7{fill:#666666;}
	.st8{fill:#E67900;}
	.st9{fill:#F39655;}
	.st10{fill:#EC6608;}</style>
	<g transform="translate(-190.3,-106.6)">
		<path class="st5" d="m200.3 223.8v199.3l173.1 103.8-0.4-72.3-112.1-67.2v-129.1z"/>
		<path class="st6" d="m372.8 116.6-172.5 107.2 60.6 34.5 111.9-69.4 110.8 70 60.6-34.201z"/>
		<polygon class="st7" points="483.6 386.3 544.1 421.4 373.4 526.9 373 454.6"/>
		<path class="st8" d="m284.7 373.3v-101.4l88.1 50.6v103.7z"/>
		<path class="st9" d="m372.8 322.5-88.1-50.6 88.1-54.6 87 55.1z"/>
		<path class="st10" d="m372.8 426.2v-103.7l87-50.1v100.1z"/>
	</g>
	<g transform="translate(-151.68,-170.01)">
		<g class="st60">
			<path class="st61" d="m598.25 433.88h4.55v22.24c0 6.68 3.62 10.9 10.35 10.9 6.74 0 10.35-4.22 10.35-10.9v-22.24h4.55v22.29c0 9.09-4.98 14.9-14.9 14.9-9.91 0-14.9-5.86-14.9-14.85z"/>
			<path class="st61" d="m658.35 453.11c0-4.66-2.36-6.14-5.92-6.14-3.23 0-6.3 1.97-7.83 4.11v19.34h-4.11v-26.46h4.11v3.84c1.86-2.19 5.48-4.49 9.42-4.49 5.53 0 8.44 2.8 8.44 8.55v18.57h-4.11z"/>
			<path class="st61" d="m674.72 480.5v-36.54h4.11v3.95c1.92-2.68 5.2-4.6 8.93-4.6 6.96 0 11.78 5.26 11.78 13.86 0 8.55-4.82 13.91-11.78 13.91-3.62 0-6.79-1.7-8.93-4.66v14.08zm12-33.53c-3.23 0-6.46 1.92-7.89 4.22v11.94c1.43 2.3 4.66 4.27 7.89 4.27 5.31 0 8.49-4.38 8.49-10.24s-3.18-10.19-8.49-10.19z"/>
			<path class="st61" d="m726.76 467.41c-2.19 2.41-5.2 3.67-8.77 3.67-4.49 0-9.26-3.01-9.26-8.76 0-5.92 4.77-8.71 9.26-8.71 3.61 0 6.63 1.15 8.77 3.61v-4.77c0-3.56-2.85-5.59-6.68-5.59-3.18 0-5.75 1.15-8.11 3.67l-1.92-2.85c2.85-2.96 6.24-4.38 10.57-4.38 5.59 0 10.24 2.52 10.24 8.93v18.19h-4.11v-3.01zm0-7.56c-1.59-2.19-4.38-3.29-7.29-3.29-3.84 0-6.52 2.41-6.52 5.81 0 3.34 2.68 5.75 6.52 5.75 2.9 0 5.7-1.1 7.29-3.29z"/>
			<path class="st61" d="m754.81 443.3c4.82 0 7.67 1.97 9.7 4.6l-2.74 2.52c-1.75-2.41-4-3.45-6.74-3.45-5.64 0-9.15 4.33-9.15 10.19s3.51 10.24 9.15 10.24c2.74 0 4.99-1.09 6.74-3.45l2.74 2.52c-2.03 2.63-4.87 4.6-9.7 4.6-7.89 0-13.2-6.03-13.2-13.91 0-7.83 5.31-13.86 13.2-13.86z"/>
			<path class="st61" d="m782.8 458.53-4.38 4.33v7.56h-4.11v-36.54h4.11v24.16l13.91-14.08h5.21l-11.72 12 11.78 14.46h-5.26z"/>
			<path class="st61" d="m805.8 436.73c0-1.53 1.26-2.74 2.74-2.74 1.53 0 2.8 1.21 2.8 2.74s-1.26 2.79-2.8 2.79c-1.48 0-2.74-1.25-2.74-2.79zm0.71 7.23h4.11v26.46h-4.11z"/>
			<path class="st61" d="m840.75 453.11c0-4.66-2.36-6.14-5.92-6.14-3.23 0-6.3 1.97-7.83 4.11v19.34h-4.11v-26.46h4.11v3.84c1.86-2.19 5.48-4.49 9.42-4.49 5.53 0 8.44 2.8 8.44 8.55v18.57h-4.11z"/>
			<path class="st61" d="m859.15 474.15c2.19 2.63 4.82 3.61 8.6 3.61 4.38 0 8.49-2.14 8.49-7.94v-3.78c-1.92 2.68-5.15 4.71-8.87 4.71-6.9 0-11.78-5.15-11.78-13.7 0-8.49 4.82-13.75 11.78-13.75 3.56 0 6.74 1.75 8.87 4.66v-4h4.11v25.69c0 8.76-6.14 11.5-12.6 11.5-4.49 0-7.56-0.88-10.68-3.95zm17.1-22.9c-1.42-2.3-4.6-4.27-7.89-4.27-5.31 0-8.49 4.22-8.49 10.08 0 5.81 3.18 10.08 8.49 10.08 3.29 0 6.46-2.03 7.89-4.33z"/>
			<path class="st61" d="m911.63 464.89v-17.31h-4.38v-3.62h4.38v-7.23h4.11v7.23h5.37v3.62h-5.37v16.43c0 1.97 0.88 3.4 2.68 3.4 1.15 0 2.24-0.49 2.79-1.09l1.21 3.07c-1.04 0.99-2.52 1.7-4.93 1.7-3.89-0.01-5.86-2.26-5.86-6.2z"/>
			<path class="st61" d="m948.88 453c0-4.66-2.41-6.03-5.97-6.03-3.18 0-6.24 1.97-7.83 4.11v19.34h-4.11v-36.54h4.11v13.91c1.86-2.19 5.48-4.49 9.48-4.49 5.53 0 8.44 2.68 8.44 8.44v18.68h-4.11v-17.42z"/>
			<path class="st61" d="m976.76 443.3c8 0 12.71 6.25 12.71 14.19v1.04h-21.42c0.33 4.98 3.83 9.15 9.53 9.15 3.01 0 6.08-1.2 8.16-3.34l1.97 2.68c-2.63 2.63-6.19 4.05-10.52 4.05-7.83 0-13.48-5.64-13.48-13.91 0.01-7.67 5.49-13.86 13.05-13.86zm-8.71 12.22h17.37c-0.06-3.94-2.68-8.82-8.71-8.82-5.65 0-8.44 4.77-8.66 8.82z"/>
			<path class="st61" d="m1019.5 447.58h-4.38v-3.62h4.38v-2.03c0-5.48 3.07-8.6 7.67-8.6 1.53 0 2.96 0.27 4 0.93l-1.04 3.07c-0.66-0.38-1.43-0.6-2.36-0.6-2.68 0-4.16 1.86-4.16 5.2v2.03h5.37v3.62h-5.37v22.84h-4.11z"/>
			<path class="st61" d="m1055.8 466.69c-2.03 2.3-5.48 4.38-9.42 4.38-5.54 0-8.44-2.68-8.44-8.44v-18.68h4.11v17.42c0 4.66 2.35 6.03 5.92 6.03 3.23 0 6.3-1.86 7.83-4v-19.45h4.11v26.46h-4.11z"/>
			<path class="st61" d="m1073 464.89v-17.31h-4.38v-3.62h4.38v-7.23h4.11v7.23h5.37v3.62h-5.37v16.43c0 1.97 0.88 3.4 2.68 3.4 1.15 0 2.25-0.49 2.8-1.09l1.2 3.07c-1.04 0.99-2.52 1.7-4.93 1.7-3.89-0.01-5.86-2.26-5.86-6.2z"/>
			<path class="st61" d="m1110.1 466.69c-2.03 2.3-5.48 4.38-9.42 4.38-5.54 0-8.44-2.68-8.44-8.44v-18.68h4.11v17.42c0 4.66 2.35 6.03 5.92 6.03 3.23 0 6.3-1.86 7.83-4v-19.45h4.11v26.46h-4.11z"/>
			<path class="st61" d="m1126.5 443.96h4.11v4.27c2.13-2.79 5.2-4.82 8.82-4.82v4.22c-0.49-0.11-0.99-0.16-1.64-0.16-2.52 0-5.97 2.08-7.17 4.22v18.74h-4.11v-26.47z"/>
			<path class="st61" d="m1160.2 443.3c8 0 12.71 6.25 12.71 14.19v1.04h-21.42c0.33 4.98 3.83 9.15 9.53 9.15 3.01 0 6.08-1.2 8.16-3.34l1.97 2.68c-2.63 2.63-6.19 4.05-10.52 4.05-7.83 0-13.48-5.64-13.48-13.91 0.01-7.67 5.49-13.86 13.05-13.86zm-8.71 12.22h17.37c-0.05-3.94-2.68-8.82-8.71-8.82-5.65 0-8.44 4.77-8.66 8.82z"/>
			<path class="st61" d="m1185.4 464.94c1.64 0 3.01 1.37 3.01 3.01s-1.37 3.01-3.01 3.01c-1.65 0-3.01-1.37-3.01-3.01-0.01-1.64 1.36-3.01 3.01-3.01z"/>
			<path class="st61" d="m583.4 347.14c0-22.14 16.31-37.26 36.72-37.26 13.07 0 21.93 6.16 27.65 14.26l-7.56 4.21c-4.11-6.05-11.56-10.48-20.09-10.48-15.45 0-27.44 12.1-27.44 29.27 0 17.07 11.99 29.27 27.44 29.27 8.53 0 15.99-4.32 20.09-10.48l7.67 4.21c-6.05 8.21-14.69 14.26-27.76 14.26-20.41 0-36.72-15.12-36.72-37.26z"/>
			<path class="st61" d="m665.07 330.93h8.1v8.43c4.21-5.51 10.26-9.5 17.39-9.5v8.32c-0.97-0.22-1.94-0.32-3.24-0.32-4.97 0-11.77 4.11-14.15 8.32v36.94h-8.1z"/>
			<path class="st61" d="m729.45 329.64c15.77 0 25.06 12.31 25.06 27.97v2.05h-42.23c0.65 9.83 7.56 18.04 18.79 18.04 5.94 0 11.99-2.38 16.09-6.59l3.89 5.29c-5.18 5.18-12.21 7.99-20.74 7.99-15.45 0-26.57-11.13-26.57-27.44 0-15.11 10.8-27.31 25.71-27.31zm-17.17 24.09h34.24c-0.11-7.78-5.29-17.39-17.18-17.39-11.12-0.01-16.63 9.39-17.06 17.39z"/>
			<path class="st61" d="m806.25 377.17c-4.32 4.75-10.26 7.24-17.28 7.24-8.86 0-18.25-5.94-18.25-17.28 0-11.67 9.4-17.18 18.25-17.18 7.13 0 13.07 2.27 17.28 7.13v-9.4c0-7.02-5.62-11.02-13.18-11.02-6.26 0-11.34 2.27-15.99 7.24l-3.78-5.62c5.62-5.83 12.31-8.64 20.85-8.64 11.02 0 20.2 4.97 20.2 17.61v35.86h-8.1zm0-14.91c-3.13-4.32-8.64-6.48-14.37-6.48-7.56 0-12.85 4.75-12.85 11.45 0 6.59 5.29 11.34 12.85 11.34 5.73 0 11.23-2.16 14.37-6.48z"/>
			<path class="st61" d="m838.23 372.2v-34.13h-8.64v-7.13h8.64v-14.26h8.1v14.26h10.59v7.13h-10.59v32.4c0 3.89 1.73 6.7 5.29 6.7 2.27 0 4.43-0.97 5.51-2.16l2.38 6.05c-2.05 1.94-4.97 3.35-9.72 3.35-7.67-0.01-11.56-4.44-11.56-12.21z"/>
			<path class="st61" d="m871.4 356.97c0-15.12 9.94-27.33 25.82-27.33s25.81 12.2 25.81 27.33-9.94 27.44-25.81 27.44c-15.89-0.01-25.82-12.32-25.82-27.44zm43.09 0c0-10.59-6.16-20.09-17.28-20.09-11.13 0-17.39 9.51-17.39 20.09 0 10.69 6.27 20.2 17.39 20.2 11.13 0 17.28-9.51 17.28-20.2z"/>
			<path class="st61" d="m942.26 330.93h8.1v8.43c4.21-5.51 10.26-9.5 17.39-9.5v8.32c-0.97-0.22-1.94-0.32-3.24-0.32-4.97 0-11.77 4.11-14.15 8.32v36.94h-8.1z"/>
			<path class="st61" d="m984.28 311.06h32.08c12.53 0 20.2 7.56 20.2 18.36 0 9.07-6.05 15.12-12.64 16.53 7.67 1.19 14.04 9.07 14.04 17.72 0 11.56-7.67 19.44-20.85 19.44h-32.84v-72.05zm30.57 31.22c8.1 0 12.42-4.97 12.42-11.56 0-6.48-4.32-11.67-12.42-11.67h-21.6v23.22h21.6zm0.43 32.83c8.43 0 13.39-4.75 13.39-12.42 0-6.59-4.54-12.42-13.39-12.42h-22.04v24.84z"/>
			<path class="st61" d="m1091.1 309.87c21.28 0 35.75 15.99 35.75 37.26 0 21.28-14.47 37.26-35.75 37.26-21.39 0-35.75-15.99-35.75-37.26s14.37-37.26 35.75-37.26zm0 7.99c-16.2 0-26.46 12.42-26.46 29.27 0 16.74 10.26 29.27 26.46 29.27 16.09 0 26.46-12.53 26.46-29.27 0.01-16.84-10.36-29.27-26.46-29.27z"/>
			<path class="st61" d="m1170.5 352.43-23.01 30.68h-10.91l28.08-36.94-26.46-35.11h10.91l21.39 28.84 21.28-28.84h10.91l-26.36 35 27.97 37.05h-10.8z"/>
		</g>
	</g>
</svg>
